Coordinates
version=1
nRows=20
nColumns=30
inDegrees=yes

Units are S.I. units (second, meters, Newtons, ...)
Angles are in degrees.

endheader
time	floatyaw	floatroll	floatpitch	floatx	floaty	floatz	pro_sup_l	deviation_l	flexion_l	cmc_flexion_l	cmc_abduction_l	mp_flexion_l	ip_flexion_l	2mcp_flexion_l	2mcp_abduction_l	2pm_flexion_l	2md_flexion_l	3mcp_flexion_l	3mcp_abduction_l	3pm_flexion_l	3md_flexion_l	4mcp_flexion_l	4mcp_abduction_l	4pm_flexion_l	4md_flexion_l	5mcp_flexion_l	5mcp_abduction_l	5pm_flexion_l	5md_flexion_l
-1.495000	-160.147433	-5.066637	-73.570646	0.081095	-0.181925	-0.017468	103.234574	4.424648	-1.056781	13.258354	9.088067	-25.982175	-41.332555	29.922566	6.867543	43.611487	30.009539	24.153297	4.359789	45.578185	30.592723	13.542290	-4.497405	53.033412	36.733626	2.381813	-8.104621	61.775936	42.791081
-1.485000	-160.147433	-5.066637	-73.570646	0.081084	-0.181931	-0.017473	103.230586	4.417029	-1.065511	13.255017	9.143362	-25.986560	-41.348461	29.923347	6.873320	43.631621	30.024821	24.162250	4.355932	45.608217	30.608346	13.547589	-4.497736	53.046095	36.741589	2.394414	-8.106088	61.774330	42.794675
-1.475000	-160.147433	-5.066637	-73.570646	0.081075	-0.181933	-0.017476	103.224281	4.407861	-1.069780	13.251931	9.198359	-25.988513	-41.355352	29.918274	6.882057	43.652616	30.041553	24.168997	4.351792	45.642621	30.626225	13.547265	-4.497822	53.062925	36.751735	2.411361	-8.106838	61.768327	42.795371
-1.465000	-160.147433	-5.066637	-73.570646	0.081070	-0.181932	-0.017475	103.218380	4.400245	-1.067720	13.247259	9.243001	-25.989312	-41.347569	29.906462	6.893085	43.669018	30.058263	24.169588	4.347490	45.679294	30.646042	13.538546	-4.496672	53.081846	36.763405	2.429249	-8.106670	61.758305	42.794070
-1.455000	-160.147433	-5.066637	-73.570646	0.081068	-0.181926	-0.017471	103.216948	4.397345	-1.059816	13.239594	9.268508	-25.988822	-41.322556	29.888607	6.905587	43.678794	30.074668	24.162599	4.343746	45.714755	30.666472	13.522021	-4.493836	53.101097	36.775782	2.446011	-8.106440	61.746688	42.792402
-1.445000	-160.147433	-5.066637	-73.570646	0.081069	-0.181917	-0.017462	103.222909	4.400965	-1.048156	13.227669	9.270831	-25.986227	-41.282344	29.867069	6.918369	43.682171	30.090663	24.149705	4.341468	45.743853	30.684695	13.500482	-4.489646	53.119385	36.787866	2.459726	-8.106967	61.736738	42.792138
-1.435000	-160.147433	-5.066637	-73.570646	0.081072	-0.181907	-0.017450	103.235977	4.410552	-1.035393	13.210161	9.252496	-25.981313	-41.233739	29.845632	6.929748	43.680008	30.105350	24.134954	4.341166	45.761252	30.697096	13.477224	-4.485027	53.135804	36.798497	2.467979	-8.107975	61.730665	42.794332
-1.425000	-160.147433	-5.066637	-73.570646	0.081076	-0.181897	-0.017439	103.252742	4.423487	-1.023935	13.186078	9.221536	-25.974967	-41.186542	29.828739	6.937864	43.673029	30.116924	24.123014	4.342575	45.764193	30.700971	13.454965	-4.480994	53.149650	36.806541	2.468871	-8.107918	61.728192	42.798531
-1.415000	-160.147433	-5.066637	-73.570646	0.081082	-0.181890	-0.017429	103.268875	4.436617	-1.015488	13.155711	9.188359	-25.968405	-41.150048	29.820033	6.941483	43.662178	30.123539	24.117163	4.344676	45.754773	30.696231	13.435661	-4.478133	53.160329	36.811219	2.462925	-8.104899	61.726528	42.802656
-1.405000	-160.147433	-5.066637	-73.570646	0.081087	-0.181887	-0.017422	103.281621	4.447943	-1.010824	13.121310	9.162792	-25.961970	-41.129347	29.820738	6.940741	43.649325	30.124571	24.117898	4.346097	45.739940	30.685978	13.420657	-4.476352	53.167413	36.812430	2.453893	-8.098110	61.722004	42.803947
-1.395000	-160.147433	-5.066637	-73.570646	0.081093	-0.181885	-0.017417	103.290657	4.457172	-1.009745	13.086620	9.152540	-25.954748	-41.123491	29.828945	6.937203	43.637317	30.121311	24.122736	4.345716	45.728757	30.675396	13.410627	-4.475058	53.170771	36.810825	2.447079	-8.088793	61.712548	42.800669
-1.385000	-160.147433	-5.066637	-73.570646	0.081097	-0.181884	-0.017415	103.296967	4.464872	-1.011226	13.055274	9.162437	-25.945498	-41.126648	29.840549	6.933056	43.628971	30.116477	24.127332	4.343203	45.728218	30.669399	13.405265	-4.473631	53.170629	36.807528	2.445952	-8.079989	61.699487	42.793525
-1.375000	-160.147433	-5.066637	-73.570646	0.081101	-0.181883	-0.017414	103.301114	4.471077	-1.013786	13.029127	9.193425	-25.934157	-41.131627	29.851436	6.930093	43.625534	30.112737	24.127528	4.339223	45.740007	30.670320	13.403250	-4.471873	53.167581	36.803675	2.449644	-8.075123	61.687348	42.785674
-1.365000	-160.147433	-5.066637	-73.570646	0.081102	-0.181883	-0.017416	103.302611	4.474595	-1.016028	13.007671	9.241462	-25.922716	-41.133757	29.859613	6.929173	43.625681	30.111158	24.121430	4.335189	45.760040	30.676945	13.402812	-4.470168	53.162655	36.800076	2.453488	-8.076241	61.681565	42.781115
-1.355000	-160.147433	-5.066637	-73.570646	0.081102	-0.181883	-0.017421	103.300802	4.473593	-1.017140	12.988717	9.297678	-25.914707	-41.132864	29.865886	6.930342	43.625906	30.110690	24.110317	4.332680	45.781024	30.685452	13.402667	-4.469256	53.157346	36.797154	2.452281	-8.082965	61.685398	42.782397
-1.345000	-160.147433	-5.066637	-73.570646	0.081101	-0.181885	-0.017432	103.296121	4.466935	-1.017017	12.969733	9.350705	-25.913559	-41.132356	29.872710	6.933143	43.622268	30.109079	24.097680	4.332807	45.796409	30.691680	13.402562	-4.469789	53.153274	36.795018	2.443715	-8.092744	61.697894	42.789124
-1.335000	-160.147433	-5.066637	-73.570646	0.081098	-0.181887	-0.017448	103.290305	4.455224	-1.015915	12.949085	9.390515	-25.920944	-41.136385	29.882130	6.936644	43.612444	30.104557	24.086913	4.335762	45.803419	30.693335	13.402896	-4.471913	53.151357	36.793526	2.429472	-8.102153	61.714019	42.798186
-1.325000	-160.147433	-5.066637	-73.570646	0.081094	-0.181888	-0.017467	103.285292	4.440814	-1.013957	12.926771	9.411739	-25.936167	-41.147323	29.894347	6.939321	43.596803	30.097017	24.079337	4.340711	45.803510	30.690796	13.403716	-4.475079	53.150969	36.792288	2.413560	-8.108450	61.726846	42.805488
-1.315000	-160.147433	-5.066637	-73.570646	0.081090	-0.181888	-0.017485	103.281925	4.426911	-1.010974	12.904437	9.414695	-25.956784	-41.165115	29.907772	6.939313	43.577973	30.087924	24.073959	4.346090	45.800415	30.686210	13.404106	-4.478162	53.149918	36.790772	2.399552	-8.110588	61.730756	42.808128
-1.305000	-160.147433	-5.066637	-73.570646	0.081088	-0.181888	-0.017500	103.279684	4.416368	-1.006898	12.884635	9.403985	-25.979735	-41.188304	29.920289	6.935287	43.559535	30.079274	24.068949	4.350245	45.797528	30.681778	13.402738	-4.479878	53.145656	36.788583	2.388924	-8.109389	61.724242	42.805848
